<mxfile host="65bd71144e">
    <diagram id="QLs2aqeu4K2RpbKVQsiy" name="Página-1">
        <mxGraphModel dx="693" dy="710" grid="1" gridSize="10" guides="1" tooltips="1" connect="1" arrows="1" fold="1" page="1" pageScale="1" pageWidth="827" pageHeight="1169" math="0" shadow="0">
            <root>
                <mxCell id="0"/>
                <mxCell id="1" parent="0"/>
                <mxCell id="4" value="MedVet" style="shape=umlActor;verticalLabelPosition=bottom;verticalAlign=top;html=1;outlineConnect=0;fillColor=#e3c800;fontColor=#000000;strokeColor=#B09500;" parent="1" vertex="1">
                    <mxGeometry x="278" y="397" width="30" height="60" as="geometry"/>
                </mxCell>
                <mxCell id="5" value="Sempre que o paciente estiver hospitalizado" style="shape=note;strokeWidth=2;fontSize=14;size=20;whiteSpace=wrap;html=1;fillColor=#b1ddf0;strokeColor=#10739e;" parent="1" vertex="1">
                    <mxGeometry x="405" y="430" width="100" height="110" as="geometry"/>
                </mxCell>
                <mxCell id="6" value="Read Model" style="shape=note;strokeWidth=2;fontSize=14;size=20;whiteSpace=wrap;html=1;fillColor=#60a917;strokeColor=#2D7600;fontColor=#ffffff;" parent="1" vertex="1">
                    <mxGeometry x="220" y="505" width="110.00000000000001" height="80" as="geometry"/>
                </mxCell>
                <mxCell id="7" value="Sistema Exerno&lt;br&gt;para enviar a mensagem ao tutor" style="shape=note;strokeWidth=2;fontSize=14;size=20;whiteSpace=wrap;html=1;fillColor=#d80073;strokeColor=#A50040;fontColor=#ffffff;" parent="1" vertex="1">
                    <mxGeometry x="570" y="440" width="100" height="120" as="geometry"/>
                </mxCell>
                <mxCell id="9" value="Evolução" style="shape=note;strokeWidth=2;fontSize=14;size=20;whiteSpace=wrap;html=1;fillColor=#fff2cc;strokeColor=#d6b656;" vertex="1" parent="1">
                    <mxGeometry x="400" y="270" width="110.00000000000001" height="80" as="geometry"/>
                </mxCell>
                <mxCell id="2" value="Evolução Registrada" style="shape=note;strokeWidth=2;fontSize=14;size=20;whiteSpace=wrap;html=1;fillColor=#f0a30a;strokeColor=#BD7000;fontColor=#000000;" parent="1" vertex="1">
                    <mxGeometry x="495" y="335" width="110.00000000000001" height="80" as="geometry"/>
                </mxCell>
                <mxCell id="3" value="Registar evolução" style="shape=note;strokeWidth=2;fontSize=14;size=20;whiteSpace=wrap;html=1;fillColor=#1ba1e2;strokeColor=#006EAF;fontColor=#ffffff;" parent="1" vertex="1">
                    <mxGeometry x="312" y="328" width="110.00000000000001" height="80" as="geometry"/>
                </mxCell>
                <mxCell id="10" value="&lt;font style=&quot;font-size: 28px;&quot;&gt;Tiimeline&lt;/font&gt;" style="text;html=1;strokeColor=none;fillColor=none;align=center;verticalAlign=middle;whiteSpace=wrap;rounded=0;" vertex="1" parent="1">
                    <mxGeometry x="387.5" y="140" width="135" height="50" as="geometry"/>
                </mxCell>
            </root>
        </mxGraphModel>
    </diagram>
</mxfile>